<mxfile host="app.diagrams.net" agent="Mozilla/5.0 (Windows NT 10.0; Win64; x64) AppleWebKit/537.36 (KHTML, like Gecko) Chrome/129.0.0.0 Safari/537.36" version="24.8.0">
  <diagram name="Page-1" id="7F-sC970J-qzRbGkCHU4">
    <mxGraphModel dx="2412" dy="818" grid="1" gridSize="10" guides="1" tooltips="1" connect="1" arrows="1" fold="1" page="1" pageScale="1" pageWidth="850" pageHeight="1100" math="0" shadow="0">
      <root>
        <mxCell id="0" />
        <mxCell id="1" parent="0" />
        <mxCell id="mfzZL3rOaDWxmd5_b0Gq-16" value="" style="rounded=1;whiteSpace=wrap;html=1;dotted=1;dashed=1;" parent="1" vertex="1">
          <mxGeometry x="20" y="300" width="800" height="400" as="geometry" />
        </mxCell>
        <object placeholders="1" c4Name="Administrator" c4Type="Person" c4Description="A user or group of users administrating the SimplePass web application. " label="&lt;font style=&quot;font-size: 16px&quot;&gt;&lt;b&gt;%c4Name%&lt;/b&gt;&lt;/font&gt;&lt;div&gt;[%c4Type%]&lt;/div&gt;&lt;br&gt;&lt;div&gt;&lt;font style=&quot;font-size: 11px&quot;&gt;&lt;font color=&quot;#cccccc&quot;&gt;%c4Description%&lt;/font&gt;&lt;/div&gt;" id="YkVNzX3B_mR5LUlFIM-c-4">
          <mxCell style="html=1;fontSize=11;dashed=0;whiteSpace=wrap;fillColor=#083F75;strokeColor=#06315C;fontColor=#ffffff;shape=mxgraph.c4.person2;align=center;metaEdit=1;points=[[0.5,0,0],[1,0.5,0],[1,0.75,0],[0.75,1,0],[0.5,1,0],[0.25,1,0],[0,0.75,0],[0,0.5,0]];resizable=0;" parent="1" vertex="1">
            <mxGeometry x="545" y="50" width="200" height="180" as="geometry" />
          </mxCell>
        </object>
        <mxCell id="YkVNzX3B_mR5LUlFIM-c-5" value="" style="endArrow=classic;html=1;rounded=0;exitX=0.5;exitY=1;exitDx=0;exitDy=0;exitPerimeter=0;entryX=0.25;entryY=0;entryDx=0;entryDy=0;entryPerimeter=0;" parent="1" source="rNSkfH_2zcLAFti8pb-L-14" target="mfzZL3rOaDWxmd5_b0Gq-14" edge="1">
          <mxGeometry width="50" height="50" relative="1" as="geometry">
            <mxPoint x="210" y="250" as="sourcePoint" />
            <mxPoint x="360" y="270" as="targetPoint" />
          </mxGeometry>
        </mxCell>
        <mxCell id="YkVNzX3B_mR5LUlFIM-c-8" value="Uses&lt;div&gt;[HTTPS]&lt;/div&gt;" style="edgeLabel;html=1;align=center;verticalAlign=middle;resizable=0;points=[];" parent="YkVNzX3B_mR5LUlFIM-c-5" vertex="1" connectable="0">
          <mxGeometry x="-0.2411" relative="1" as="geometry">
            <mxPoint as="offset" />
          </mxGeometry>
        </mxCell>
        <mxCell id="YkVNzX3B_mR5LUlFIM-c-7" value="" style="endArrow=classic;html=1;rounded=0;exitX=0.5;exitY=1;exitDx=0;exitDy=0;exitPerimeter=0;entryX=0.75;entryY=0;entryDx=0;entryDy=0;entryPerimeter=0;" parent="1" source="YkVNzX3B_mR5LUlFIM-c-4" target="mfzZL3rOaDWxmd5_b0Gq-14" edge="1">
          <mxGeometry width="50" height="50" relative="1" as="geometry">
            <mxPoint x="660" y="350" as="sourcePoint" />
            <mxPoint x="470" y="270" as="targetPoint" />
          </mxGeometry>
        </mxCell>
        <mxCell id="YkVNzX3B_mR5LUlFIM-c-9" value="Uses&lt;div&gt;[HTTPS]&lt;/div&gt;" style="edgeLabel;html=1;align=center;verticalAlign=middle;resizable=0;points=[];" parent="YkVNzX3B_mR5LUlFIM-c-7" vertex="1" connectable="0">
          <mxGeometry x="-0.2645" y="1" relative="1" as="geometry">
            <mxPoint as="offset" />
          </mxGeometry>
        </mxCell>
        <object placeholders="1" c4Name="End User" c4Type="Person" c4Description="Any person accessing the SimplePass web application. " label="&lt;font style=&quot;font-size: 16px&quot;&gt;&lt;b&gt;%c4Name%&lt;/b&gt;&lt;/font&gt;&lt;div&gt;[%c4Type%]&lt;/div&gt;&lt;br&gt;&lt;div&gt;&lt;font style=&quot;font-size: 11px&quot;&gt;&lt;font color=&quot;#cccccc&quot;&gt;%c4Description%&lt;/font&gt;&lt;/div&gt;" id="rNSkfH_2zcLAFti8pb-L-14">
          <mxCell style="html=1;fontSize=11;dashed=0;whiteSpace=wrap;fillColor=#6C6477;strokeColor=#4D4D4D;fontColor=#ffffff;shape=mxgraph.c4.person2;align=center;metaEdit=1;points=[[0.5,0,0],[1,0.5,0],[1,0.75,0],[0.75,1,0],[0.5,1,0],[0.25,1,0],[0,0.75,0],[0,0.5,0]];resizable=0;" parent="1" vertex="1">
            <mxGeometry x="105" y="50" width="200" height="180" as="geometry" />
          </mxCell>
        </object>
        <object placeholders="1" c4Name="Front-End Component" c4Type="Container" c4Technology="Django on Python 3.12" c4Description="Accepts user input and responds with HTTPS." label="&lt;font style=&quot;font-size: 16px&quot;&gt;&lt;b&gt;%c4Name%&lt;/b&gt;&lt;/font&gt;&lt;div&gt;[%c4Type%: %c4Technology%]&lt;/div&gt;&lt;br&gt;&lt;div&gt;&lt;font style=&quot;font-size: 11px&quot;&gt;&lt;font color=&quot;#E6E6E6&quot;&gt;%c4Description%&lt;/font&gt;&lt;/div&gt;" id="mfzZL3rOaDWxmd5_b0Gq-14">
          <mxCell style="rounded=1;whiteSpace=wrap;html=1;fontSize=11;labelBackgroundColor=none;fillColor=#23A2D9;fontColor=#ffffff;align=center;arcSize=10;strokeColor=#0E7DAD;metaEdit=1;resizable=0;points=[[0.25,0,0],[0.5,0,0],[0.75,0,0],[1,0.25,0],[1,0.5,0],[1,0.75,0],[0.75,1,0],[0.5,1,0],[0.25,1,0],[0,0.75,0],[0,0.5,0],[0,0.25,0]];" parent="1" vertex="1">
            <mxGeometry x="450" y="350" width="240" height="120" as="geometry" />
          </mxCell>
        </object>
        <object placeholders="1" c4Name="Docker Setup" c4Type="Container" c4Technology="Docker Compose" c4Description="Deploys containers and volumes for the web application to function. " label="&lt;font style=&quot;font-size: 16px&quot;&gt;&lt;b&gt;%c4Name%&lt;/b&gt;&lt;/font&gt;&lt;div&gt;[%c4Type%: %c4Technology%]&lt;/div&gt;&lt;br&gt;&lt;div&gt;&lt;font style=&quot;font-size: 11px&quot;&gt;&lt;font color=&quot;#E6E6E6&quot;&gt;%c4Description%&lt;/font&gt;&lt;/div&gt;" id="mfzZL3rOaDWxmd5_b0Gq-17">
          <mxCell style="rounded=1;whiteSpace=wrap;html=1;fontSize=11;labelBackgroundColor=none;fillColor=#23A2D9;fontColor=#ffffff;align=center;arcSize=10;strokeColor=#0E7DAD;metaEdit=1;resizable=0;points=[[0.25,0,0],[0.5,0,0],[0.75,0,0],[1,0.25,0],[1,0.5,0],[1,0.75,0],[0.75,1,0],[0.5,1,0],[0.25,1,0],[0,0.75,0],[0,0.5,0],[0,0.25,0]];" parent="1" vertex="1">
            <mxGeometry x="80" y="760" width="240" height="120" as="geometry" />
          </mxCell>
        </object>
        <mxCell id="mfzZL3rOaDWxmd5_b0Gq-18" value="" style="endArrow=classic;html=1;rounded=0;exitX=0.5;exitY=0;exitDx=0;exitDy=0;exitPerimeter=0;entryX=0.25;entryY=1;entryDx=0;entryDy=0;" parent="1" source="mfzZL3rOaDWxmd5_b0Gq-17" target="mfzZL3rOaDWxmd5_b0Gq-16" edge="1">
          <mxGeometry width="50" height="50" relative="1" as="geometry">
            <mxPoint x="260" y="560" as="sourcePoint" />
            <mxPoint x="230" y="890" as="targetPoint" />
          </mxGeometry>
        </mxCell>
        <mxCell id="mfzZL3rOaDWxmd5_b0Gq-20" value="Deploys" style="edgeLabel;html=1;align=center;verticalAlign=middle;resizable=0;points=[];" parent="mfzZL3rOaDWxmd5_b0Gq-18" vertex="1" connectable="0">
          <mxGeometry x="-0.0374" relative="1" as="geometry">
            <mxPoint as="offset" />
          </mxGeometry>
        </mxCell>
        <object placeholders="1" c4Name="PostgreSQL" c4Type="Container" c4Technology="PostgreSQL 17.0" c4Description="Stores password data, user data, and log data for SimplePass web application. " label="&lt;font style=&quot;font-size: 16px&quot;&gt;&lt;b&gt;%c4Name%&lt;/b&gt;&lt;/font&gt;&lt;div&gt;[%c4Type%: %c4Technology%]&lt;/div&gt;&lt;br&gt;&lt;div&gt;&lt;font style=&quot;font-size: 11px&quot;&gt;&lt;font color=&quot;#E6E6E6&quot;&gt;%c4Description%&lt;/font&gt;&lt;/div&gt;" id="mfzZL3rOaDWxmd5_b0Gq-21">
          <mxCell style="rounded=1;whiteSpace=wrap;html=1;fontSize=11;labelBackgroundColor=none;fillColor=#23A2D9;fontColor=#ffffff;align=center;arcSize=10;strokeColor=#0E7DAD;metaEdit=1;resizable=0;points=[[0.25,0,0],[0.5,0,0],[0.75,0,0],[1,0.25,0],[1,0.5,0],[1,0.75,0],[0.75,1,0],[0.5,1,0],[0.25,1,0],[0,0.75,0],[0,0.5,0],[0,0.25,0]];" parent="1" vertex="1">
            <mxGeometry x="520" y="760" width="240" height="120" as="geometry" />
          </mxCell>
        </object>
        <mxCell id="mfzZL3rOaDWxmd5_b0Gq-28" value="" style="endArrow=classic;html=1;rounded=0;entryX=0.5;entryY=0;entryDx=0;entryDy=0;entryPerimeter=0;exitX=0.5;exitY=1;exitDx=0;exitDy=0;exitPerimeter=0;" parent="1" source="t7U2IoEQ8P-0aG7rWPqY-1" target="mfzZL3rOaDWxmd5_b0Gq-21" edge="1">
          <mxGeometry width="50" height="50" relative="1" as="geometry">
            <mxPoint x="370" y="880" as="sourcePoint" />
            <mxPoint x="310" y="410" as="targetPoint" />
          </mxGeometry>
        </mxCell>
        <mxCell id="mfzZL3rOaDWxmd5_b0Gq-29" value="Writes to&amp;nbsp;&lt;div&gt;and&amp;nbsp;&lt;/div&gt;&lt;div&gt;reads from&lt;/div&gt;&lt;div&gt;[PostgreSQL port 5432]&lt;/div&gt;" style="edgeLabel;html=1;align=center;verticalAlign=middle;resizable=0;points=[];" parent="mfzZL3rOaDWxmd5_b0Gq-28" vertex="1" connectable="0">
          <mxGeometry x="0.0086" relative="1" as="geometry">
            <mxPoint x="2" y="-5" as="offset" />
          </mxGeometry>
        </mxCell>
        <mxCell id="mfzZL3rOaDWxmd5_b0Gq-32" value="&lt;font style=&quot;font-size: 24px;&quot;&gt;Level 3: Components (Web Application)&lt;/font&gt;" style="text;html=1;align=center;verticalAlign=middle;whiteSpace=wrap;rounded=0;" parent="1" vertex="1">
          <mxGeometry x="10" y="470" width="290" height="80" as="geometry" />
        </mxCell>
        <object placeholders="1" c4Name="Logging Component" c4Type="Container" c4Technology="Django on Python 3.12" c4Description="Formats all events, sends logs to SQL server, retrieves logs from SQL server. " label="&lt;font style=&quot;font-size: 16px&quot;&gt;&lt;b&gt;%c4Name%&lt;/b&gt;&lt;/font&gt;&lt;div&gt;[%c4Type%: %c4Technology%]&lt;/div&gt;&lt;br&gt;&lt;div&gt;&lt;font style=&quot;font-size: 11px&quot;&gt;&lt;font color=&quot;#E6E6E6&quot;&gt;%c4Description%&lt;/font&gt;&lt;/div&gt;" id="t7U2IoEQ8P-0aG7rWPqY-1">
          <mxCell style="rounded=1;whiteSpace=wrap;html=1;fontSize=11;labelBackgroundColor=none;fillColor=#23A2D9;fontColor=#ffffff;align=center;arcSize=10;strokeColor=#0E7DAD;metaEdit=1;resizable=0;points=[[0.25,0,0],[0.5,0,0],[0.75,0,0],[1,0.25,0],[1,0.5,0],[1,0.75,0],[0.75,1,0],[0.5,1,0],[0.25,1,0],[0,0.75,0],[0,0.5,0],[0,0.25,0]];" vertex="1" parent="1">
            <mxGeometry x="560" y="550" width="240" height="120" as="geometry" />
          </mxCell>
        </object>
        <object placeholders="1" c4Name="Generator Component" c4Type="Container" c4Technology="Django on Python 3.12" c4Description="Creates a randomly generated password." label="&lt;font style=&quot;font-size: 16px&quot;&gt;&lt;b&gt;%c4Name%&lt;/b&gt;&lt;/font&gt;&lt;div&gt;[%c4Type%: %c4Technology%]&lt;/div&gt;&lt;br&gt;&lt;div&gt;&lt;font style=&quot;font-size: 11px&quot;&gt;&lt;font color=&quot;#E6E6E6&quot;&gt;%c4Description%&lt;/font&gt;&lt;/div&gt;" id="t7U2IoEQ8P-0aG7rWPqY-2">
          <mxCell style="rounded=1;whiteSpace=wrap;html=1;fontSize=11;labelBackgroundColor=none;fillColor=#23A2D9;fontColor=#ffffff;align=center;arcSize=10;strokeColor=#0E7DAD;metaEdit=1;resizable=0;points=[[0.25,0,0],[0.5,0,0],[0.75,0,0],[1,0.25,0],[1,0.5,0],[1,0.75,0],[0.75,1,0],[0.5,1,0],[0.25,1,0],[0,0.75,0],[0,0.5,0],[0,0.25,0]];" vertex="1" parent="1">
            <mxGeometry x="300" y="550" width="240" height="120" as="geometry" />
          </mxCell>
        </object>
        <object placeholders="1" c4Name="Export Component" c4Type="Container" c4Technology="Django on Python 3.12" c4Description="Formats all events, sends logs to SQL server, retrieves logs from SQL server. " label="&lt;font style=&quot;font-size: 16px&quot;&gt;&lt;b&gt;%c4Name%&lt;/b&gt;&lt;/font&gt;&lt;div&gt;[%c4Type%: %c4Technology%]&lt;/div&gt;&lt;br&gt;&lt;div&gt;&lt;font style=&quot;font-size: 11px&quot;&gt;&lt;font color=&quot;#E6E6E6&quot;&gt;%c4Description%&lt;/font&gt;&lt;/div&gt;" id="t7U2IoEQ8P-0aG7rWPqY-3">
          <mxCell style="rounded=1;whiteSpace=wrap;html=1;fontSize=11;labelBackgroundColor=none;fillColor=#23A2D9;fontColor=#ffffff;align=center;arcSize=10;strokeColor=#0E7DAD;metaEdit=1;resizable=0;points=[[0.25,0,0],[0.5,0,0],[0.75,0,0],[1,0.25,0],[1,0.5,0],[1,0.75,0],[0.75,1,0],[0.5,1,0],[0.25,1,0],[0,0.75,0],[0,0.5,0],[0,0.25,0]];" vertex="1" parent="1">
            <mxGeometry x="40" y="550" width="240" height="120" as="geometry" />
          </mxCell>
        </object>
        <mxCell id="t7U2IoEQ8P-0aG7rWPqY-7" value="&lt;font style=&quot;font-size: 36px;&quot;&gt;*&lt;/font&gt;" style="text;html=1;align=center;verticalAlign=middle;whiteSpace=wrap;rounded=0;" vertex="1" parent="1">
          <mxGeometry x="745" y="560" width="60" height="30" as="geometry" />
        </mxCell>
        <mxCell id="t7U2IoEQ8P-0aG7rWPqY-9" value="" style="endArrow=classic;html=1;rounded=0;exitX=0.75;exitY=1;exitDx=0;exitDy=0;exitPerimeter=0;entryX=0.5;entryY=0;entryDx=0;entryDy=0;entryPerimeter=0;" edge="1" parent="1" source="mfzZL3rOaDWxmd5_b0Gq-14" target="t7U2IoEQ8P-0aG7rWPqY-1">
          <mxGeometry width="50" height="50" relative="1" as="geometry">
            <mxPoint x="560" y="540" as="sourcePoint" />
            <mxPoint x="610" y="490" as="targetPoint" />
          </mxGeometry>
        </mxCell>
        <mxCell id="t7U2IoEQ8P-0aG7rWPqY-10" value="Requests&amp;nbsp;&lt;div&gt;data from&lt;/div&gt;&lt;div&gt;and sends&amp;nbsp;&lt;/div&gt;&lt;div&gt;events to&lt;/div&gt;" style="edgeLabel;html=1;align=center;verticalAlign=middle;resizable=0;points=[];" vertex="1" connectable="0" parent="t7U2IoEQ8P-0aG7rWPqY-9">
          <mxGeometry x="0.0102" y="1" relative="1" as="geometry">
            <mxPoint as="offset" />
          </mxGeometry>
        </mxCell>
        <object placeholders="1" c4Name="Crypto Component" c4Type="Container" c4Technology="Django on Python 3.12" c4Description="Hashes/encrypts passwords and checks against database. Used to store and unlock passwords belonging to a user account, as well." label="&lt;font style=&quot;font-size: 16px&quot;&gt;&lt;b&gt;%c4Name%&lt;/b&gt;&lt;/font&gt;&lt;div&gt;[%c4Type%: %c4Technology%]&lt;/div&gt;&lt;br&gt;&lt;div&gt;&lt;font style=&quot;font-size: 11px&quot;&gt;&lt;font color=&quot;#E6E6E6&quot;&gt;%c4Description%&lt;/font&gt;&lt;/div&gt;" id="t7U2IoEQ8P-0aG7rWPqY-11">
          <mxCell style="rounded=1;whiteSpace=wrap;html=1;fontSize=11;labelBackgroundColor=none;fillColor=#23A2D9;fontColor=#ffffff;align=center;arcSize=10;strokeColor=#0E7DAD;metaEdit=1;resizable=0;points=[[0.25,0,0],[0.5,0,0],[0.75,0,0],[1,0.25,0],[1,0.5,0],[1,0.75,0],[0.75,1,0],[0.5,1,0],[0.25,1,0],[0,0.75,0],[0,0.5,0],[0,0.25,0]];" vertex="1" parent="1">
            <mxGeometry x="140" y="350" width="240" height="120" as="geometry" />
          </mxCell>
        </object>
        <mxCell id="t7U2IoEQ8P-0aG7rWPqY-12" style="edgeStyle=orthogonalEdgeStyle;rounded=0;orthogonalLoop=1;jettySize=auto;html=1;exitX=0;exitY=0.75;exitDx=0;exitDy=0;exitPerimeter=0;entryX=0.25;entryY=1;entryDx=0;entryDy=0;entryPerimeter=0;" edge="1" parent="1" source="t7U2IoEQ8P-0aG7rWPqY-11" target="mfzZL3rOaDWxmd5_b0Gq-21">
          <mxGeometry relative="1" as="geometry">
            <Array as="points">
              <mxPoint x="30" y="440" />
              <mxPoint x="30" y="900" />
              <mxPoint x="580" y="900" />
            </Array>
          </mxGeometry>
        </mxCell>
        <mxCell id="t7U2IoEQ8P-0aG7rWPqY-13" value="Writes to&amp;nbsp;&lt;div&gt;and&amp;nbsp;&lt;/div&gt;&lt;div&gt;reads from&lt;/div&gt;&lt;div&gt;[PostgreSQL port 5432]&lt;/div&gt;" style="edgeLabel;html=1;align=center;verticalAlign=middle;resizable=0;points=[];" vertex="1" connectable="0" parent="t7U2IoEQ8P-0aG7rWPqY-12">
          <mxGeometry x="-0.4299" y="2" relative="1" as="geometry">
            <mxPoint x="-2" y="55" as="offset" />
          </mxGeometry>
        </mxCell>
        <mxCell id="t7U2IoEQ8P-0aG7rWPqY-14" value="" style="endArrow=classic;html=1;rounded=0;exitX=0.25;exitY=1;exitDx=0;exitDy=0;exitPerimeter=0;" edge="1" parent="1" source="mfzZL3rOaDWxmd5_b0Gq-14" target="t7U2IoEQ8P-0aG7rWPqY-2">
          <mxGeometry width="50" height="50" relative="1" as="geometry">
            <mxPoint x="420" y="520" as="sourcePoint" />
            <mxPoint x="470" y="470" as="targetPoint" />
          </mxGeometry>
        </mxCell>
        <mxCell id="t7U2IoEQ8P-0aG7rWPqY-15" value="Requests generated&lt;div&gt;password from&lt;/div&gt;" style="edgeLabel;html=1;align=center;verticalAlign=middle;resizable=0;points=[];" vertex="1" connectable="0" parent="t7U2IoEQ8P-0aG7rWPqY-14">
          <mxGeometry x="-0.0397" relative="1" as="geometry">
            <mxPoint as="offset" />
          </mxGeometry>
        </mxCell>
        <mxCell id="t7U2IoEQ8P-0aG7rWPqY-16" style="edgeStyle=orthogonalEdgeStyle;rounded=0;orthogonalLoop=1;jettySize=auto;html=1;exitX=0;exitY=0.5;exitDx=0;exitDy=0;exitPerimeter=0;entryX=1;entryY=0.5;entryDx=0;entryDy=0;entryPerimeter=0;" edge="1" parent="1" source="mfzZL3rOaDWxmd5_b0Gq-14" target="t7U2IoEQ8P-0aG7rWPqY-11">
          <mxGeometry relative="1" as="geometry" />
        </mxCell>
        <mxCell id="t7U2IoEQ8P-0aG7rWPqY-17" value="Sends&lt;div&gt;and&lt;/div&gt;&lt;div&gt;receives&lt;/div&gt;&lt;div&gt;from&lt;/div&gt;" style="edgeLabel;html=1;align=center;verticalAlign=middle;resizable=0;points=[];" vertex="1" connectable="0" parent="t7U2IoEQ8P-0aG7rWPqY-16">
          <mxGeometry x="-0.0171" y="1" relative="1" as="geometry">
            <mxPoint as="offset" />
          </mxGeometry>
        </mxCell>
        <mxCell id="t7U2IoEQ8P-0aG7rWPqY-18" value="" style="endArrow=classic;html=1;rounded=0;exitX=0.75;exitY=1;exitDx=0;exitDy=0;exitPerimeter=0;entryX=0.25;entryY=0;entryDx=0;entryDy=0;entryPerimeter=0;" edge="1" parent="1" source="t7U2IoEQ8P-0aG7rWPqY-3" target="mfzZL3rOaDWxmd5_b0Gq-21">
          <mxGeometry width="50" height="50" relative="1" as="geometry">
            <mxPoint x="320" y="750" as="sourcePoint" />
            <mxPoint x="370" y="700" as="targetPoint" />
          </mxGeometry>
        </mxCell>
        <mxCell id="t7U2IoEQ8P-0aG7rWPqY-19" value="Reads&lt;div&gt;from&lt;/div&gt;&lt;div&gt;[PostgreSQL port 5432]&lt;/div&gt;" style="edgeLabel;html=1;align=center;verticalAlign=middle;resizable=0;points=[];" vertex="1" connectable="0" parent="t7U2IoEQ8P-0aG7rWPqY-18">
          <mxGeometry x="-0.0065" y="-1" relative="1" as="geometry">
            <mxPoint as="offset" />
          </mxGeometry>
        </mxCell>
        <mxCell id="t7U2IoEQ8P-0aG7rWPqY-21" value="" style="endArrow=classic;html=1;rounded=0;exitX=0;exitY=0.75;exitDx=0;exitDy=0;exitPerimeter=0;entryX=0.75;entryY=0;entryDx=0;entryDy=0;entryPerimeter=0;" edge="1" parent="1" source="mfzZL3rOaDWxmd5_b0Gq-14" target="t7U2IoEQ8P-0aG7rWPqY-3">
          <mxGeometry width="50" height="50" relative="1" as="geometry">
            <mxPoint x="370" y="540" as="sourcePoint" />
            <mxPoint x="420" y="490" as="targetPoint" />
          </mxGeometry>
        </mxCell>
        <mxCell id="t7U2IoEQ8P-0aG7rWPqY-22" value="Requests export&lt;div&gt;from&lt;/div&gt;" style="edgeLabel;html=1;align=center;verticalAlign=middle;resizable=0;points=[];" vertex="1" connectable="0" parent="t7U2IoEQ8P-0aG7rWPqY-21">
          <mxGeometry x="0.0156" y="-1" relative="1" as="geometry">
            <mxPoint x="-1" as="offset" />
          </mxGeometry>
        </mxCell>
        <mxCell id="t7U2IoEQ8P-0aG7rWPqY-23" style="edgeStyle=orthogonalEdgeStyle;rounded=0;orthogonalLoop=1;jettySize=auto;html=1;exitX=0;exitY=0.5;exitDx=0;exitDy=0;exitPerimeter=0;entryX=0;entryY=0.25;entryDx=0;entryDy=0;entryPerimeter=0;" edge="1" parent="1" source="t7U2IoEQ8P-0aG7rWPqY-3" target="t7U2IoEQ8P-0aG7rWPqY-11">
          <mxGeometry relative="1" as="geometry">
            <Array as="points">
              <mxPoint x="10" y="610" />
              <mxPoint x="10" y="380" />
            </Array>
          </mxGeometry>
        </mxCell>
        <mxCell id="t7U2IoEQ8P-0aG7rWPqY-24" value="Requests&lt;div&gt;decryption&lt;/div&gt;&lt;div&gt;from&lt;/div&gt;" style="edgeLabel;html=1;align=center;verticalAlign=middle;resizable=0;points=[];" vertex="1" connectable="0" parent="t7U2IoEQ8P-0aG7rWPqY-23">
          <mxGeometry x="0.6735" relative="1" as="geometry">
            <mxPoint as="offset" />
          </mxGeometry>
        </mxCell>
      </root>
    </mxGraphModel>
  </diagram>
</mxfile>
